<?xml version="1.0" standalone="no"?>
<svg xmlns:xlink="http://www.w3.org/1999/xlink" id="wave" style="transform:rotate(180deg); transition: 0.3s" viewBox="0 0 1440 490" version="1.1" xmlns="http://www.w3.org/2000/svg"><defs><linearGradient id="sw-gradient-0" x1="0" x2="0" y1="1" y2="0"><stop stop-color="rgba(62, 127.103, 243, 1)" offset="0%"/><stop stop-color="rgba(190.885, 221.932, 235.334, 1)" offset="100%"/></linearGradient></defs><path style="transform:translate(0, 0px); opacity:1" fill="url(#sw-gradient-0)" d="M0,294L60,310.3C120,327,240,359,360,318.5C480,278,600,163,720,138.8C840,114,960,180,1080,179.7C1200,180,1320,114,1440,81.7C1560,49,1680,49,1800,98C1920,147,2040,245,2160,294C2280,343,2400,343,2520,294C2640,245,2760,147,2880,122.5C3000,98,3120,147,3240,147C3360,147,3480,98,3600,114.3C3720,131,3840,212,3960,277.7C4080,343,4200,392,4320,416.5C4440,441,4560,441,4680,408.3C4800,376,4920,310,5040,261.3C5160,212,5280,180,5400,171.5C5520,163,5640,180,5760,204.2C5880,229,6000,261,6120,294C6240,327,6360,359,6480,334.8C6600,310,6720,229,6840,212.3C6960,196,7080,245,7200,269.5C7320,294,7440,294,7560,318.5C7680,343,7800,392,7920,416.5C8040,441,8160,441,8280,424.7C8400,408,8520,376,8580,359.3L8640,343L8640,490L8580,490C8520,490,8400,490,8280,490C8160,490,8040,490,7920,490C7800,490,7680,490,7560,490C7440,490,7320,490,7200,490C7080,490,6960,490,6840,490C6720,490,6600,490,6480,490C6360,490,6240,490,6120,490C6000,490,5880,490,5760,490C5640,490,5520,490,5400,490C5280,490,5160,490,5040,490C4920,490,4800,490,4680,490C4560,490,4440,490,4320,490C4200,490,4080,490,3960,490C3840,490,3720,490,3600,490C3480,490,3360,490,3240,490C3120,490,3000,490,2880,490C2760,490,2640,490,2520,490C2400,490,2280,490,2160,490C2040,490,1920,490,1800,490C1680,490,1560,490,1440,490C1320,490,1200,490,1080,490C960,490,840,490,720,490C600,490,480,490,360,490C240,490,120,490,60,490L0,490Z"/></svg>